<svg version="1.1" id="Layer_1" xmlns="http://www.w3.org/2000/svg" xmlns:xlink="http://www.w3.org/1999/xlink" x="0px" y="0px"
	 width="100%" viewBox="0 0 800 250" enable-background="new 0 0 800 250" xml:space="preserve">
<path fill="#FFFEFE" opacity="1.000000" stroke="none" 
	d="
M567.000000,251.000000 
	C378.044861,251.000000 189.589706,251.000000 1.067278,251.000000 
	C1.067278,167.731400 1.067278,84.462715 1.067278,1.097021 
	C267.666656,1.097021 534.333313,1.097021 800.971985,1.097021 
	C800.971985,84.410332 800.971985,167.705170 800.971985,251.000000 
	C723.129333,251.000000 645.314636,251.000000 567.000000,251.000000 
M434.532379,222.490952 
	C434.532379,182.104919 434.532379,141.718887 434.532379,101.332848 
	C434.952271,101.310020 435.372162,101.287193 435.792053,101.264366 
	C446.955261,146.730179 458.118500,192.195999 469.315674,237.800064 
	C486.807892,237.800064 503.792908,237.682312 520.773804,237.893341 
	C524.441223,237.938904 525.889038,236.906662 526.766357,233.278656 
	C535.761780,196.079681 544.950256,158.927368 554.100891,121.765968 
	C555.857422,114.632500 557.683167,107.516090 559.476990,100.391800 
	C559.870178,100.444130 560.263306,100.496452 560.656494,100.548782 
	C560.656494,146.258865 560.656494,191.968964 560.656494,237.548035 
	C582.331909,237.548035 603.406067,237.548035 624.529175,237.548035 
	C624.529175,162.605606 624.529175,88.020699 624.529175,13.289093 
	C592.740601,13.289093 561.194458,13.289093 529.625305,13.289093 
	C518.969177,56.615101 508.393433,99.614037 497.817688,142.612976 
	C497.540924,142.603714 497.264130,142.594467 496.987366,142.585205 
	C486.321808,99.377655 475.656250,56.170101 465.082306,13.333584 
	C432.944824,13.333584 401.548859,13.333584 369.622314,13.333584 
	C369.622314,28.309845 369.622314,42.892723 369.622314,57.475597 
	C361.270508,34.663185 344.995880,20.752348 322.455353,13.888740 
	C300.787354,7.290811 278.685883,5.752070 256.260895,9.616444 
	C239.896561,12.436418 224.694077,17.925518 211.863632,28.766201 
	C194.002853,43.857086 187.069489,63.794674 186.276352,86.618195 
	C207.488312,86.618195 228.194916,86.618195 248.624008,86.618195 
	C249.323486,83.301682 249.678696,80.296059 250.597549,77.473953 
	C256.858185,58.245403 287.928345,51.400669 301.982849,66.096230 
	C311.278778,75.816216 307.957092,91.539032 295.275452,95.823288 
	C290.187469,97.542160 284.528229,97.880112 279.092163,98.180710 
	C272.155121,98.564308 265.180756,98.273712 257.988770,98.273712 
	C257.988770,113.032516 257.988770,127.277321 257.988770,142.020645 
	C264.292664,142.020645 270.443726,141.643097 276.522888,142.141907 
	C281.257263,142.530380 286.158508,143.375977 290.530090,145.144409 
	C298.153168,148.228180 302.852234,154.076096 303.417145,162.628616 
	C304.011963,171.634308 301.785889,179.556274 294.038635,185.018448 
	C276.380951,197.467911 250.435547,188.168594 245.019608,167.296722 
	C243.493896,161.416962 243.048233,155.256973 242.102692,149.196838 
	C220.629318,149.196838 199.072998,149.196838 177.399475,149.196838 
	C177.399475,151.042831 177.290451,152.529480 177.418762,153.995361 
	C177.912430,159.635132 178.153854,165.322662 179.077789,170.894806 
	C184.284286,202.294388 200.508881,225.327896 231.289383,235.784561 
	C261.186035,245.940964 291.627625,245.514526 321.697083,236.191132 
	C342.657562,229.692078 359.684814,217.809067 369.175690,197.077408 
	C369.222412,196.975357 369.687378,197.064774 370.328308,197.064774 
	C370.328308,210.513702 370.328308,223.946976 370.328308,237.576935 
	C391.781891,237.576935 412.863983,237.576935 434.532196,237.576935 
	C434.532196,232.730667 434.532196,228.107956 434.532379,222.490952 
z"/>
<path fill="#FE020F" opacity="1.000000" stroke="none" 
	d="
M434.532288,222.988098 
	C434.532196,228.107956 434.532196,232.730667 434.532196,237.576935 
	C412.863983,237.576935 391.781891,237.576935 370.328308,237.576935 
	C370.328308,223.946976 370.328308,210.513702 370.328308,197.064774 
	C369.687378,197.064774 369.222412,196.975357 369.175690,197.077408 
	C359.684814,217.809067 342.657562,229.692078 321.697083,236.191132 
	C291.627625,245.514526 261.186035,245.940964 231.289383,235.784561 
	C200.508881,225.327896 184.284286,202.294388 179.077789,170.894806 
	C178.153854,165.322662 177.912430,159.635132 177.418762,153.995361 
	C177.290451,152.529480 177.399475,151.042831 177.399475,149.196838 
	C199.072998,149.196838 220.629318,149.196838 242.102692,149.196838 
	C243.048233,155.256973 243.493896,161.416962 245.019608,167.296722 
	C250.435547,188.168594 276.380951,197.467911 294.038635,185.018448 
	C301.785889,179.556274 304.011963,171.634308 303.417145,162.628616 
	C302.852234,154.076096 298.153168,148.228180 290.530090,145.144409 
	C286.158508,143.375977 281.257263,142.530380 276.522888,142.141907 
	C270.443726,141.643097 264.292664,142.020645 257.988770,142.020645 
	C257.988770,127.277321 257.988770,113.032516 257.988770,98.273712 
	C265.180756,98.273712 272.155121,98.564308 279.092163,98.180710 
	C284.528229,97.880112 290.187469,97.542160 295.275452,95.823288 
	C307.957092,91.539032 311.278778,75.816216 301.982849,66.096230 
	C287.928345,51.400669 256.858185,58.245403 250.597549,77.473953 
	C249.678696,80.296059 249.323486,83.301682 248.624008,86.618195 
	C228.194916,86.618195 207.488312,86.618195 186.276352,86.618195 
	C187.069489,63.794674 194.002853,43.857086 211.863632,28.766201 
	C224.694077,17.925518 239.896561,12.436418 256.260895,9.616444 
	C278.685883,5.752070 300.787354,7.290811 322.455353,13.888740 
	C344.995880,20.752348 361.270508,34.663185 369.622314,57.475597 
	C369.622314,42.892723 369.622314,28.309845 369.622314,13.333584 
	C401.548859,13.333584 432.944824,13.333584 465.082306,13.333584 
	C475.656250,56.170101 486.321808,99.377655 496.987366,142.585205 
	C497.264130,142.594467 497.540924,142.603714 497.817688,142.612976 
	C508.393433,99.614037 518.969177,56.615101 529.625305,13.289093 
	C561.194458,13.289093 592.740601,13.289093 624.529175,13.289093 
	C624.529175,88.020699 624.529175,162.605606 624.529175,237.548035 
	C603.406067,237.548035 582.331909,237.548035 560.656494,237.548035 
	C560.656494,191.968964 560.656494,146.258865 560.656494,100.548782 
	C560.263306,100.496452 559.870178,100.444130 559.476990,100.391800 
	C557.683167,107.516090 555.857422,114.632500 554.100891,121.765968 
	C544.950256,158.927368 535.761780,196.079681 526.766357,233.278656 
	C525.889038,236.906662 524.441223,237.938904 520.773804,237.893341 
	C503.792908,237.682312 486.807892,237.800064 469.315674,237.800064 
	C458.118500,192.195999 446.955261,146.730179 435.792053,101.264366 
	C435.372162,101.287193 434.952271,101.310020 434.532379,101.332848 
	C434.532379,141.718887 434.532379,182.104919 434.532288,222.988098 
M370.145264,139.639145 
	C370.145264,123.395386 370.145264,107.151627 370.145264,90.907867 
	C364.992493,103.040474 357.464386,112.398018 344.554657,117.818893 
	C356.526031,123.291145 363.708069,132.118088 369.882599,143.095673 
	C370.052032,141.400711 370.101044,140.910431 370.145264,139.639145 
M434.455139,99.546890 
	C434.455139,99.546890 434.646484,99.707916 434.646484,99.707916 
	C434.646484,99.707916 434.657379,99.392868 434.455139,99.546890 
z"/>
<path fill="#FEF8F8" opacity="1.000000" stroke="none" 
	d="
M370.147644,140.029633 
	C370.101044,140.910431 370.052032,141.400711 369.882599,143.095673 
	C363.708069,132.118088 356.526031,123.291145 344.554657,117.818893 
	C357.464386,112.398018 364.992493,103.040474 370.145264,90.907867 
	C370.145264,107.151627 370.145264,123.395386 370.147644,140.029633 
z"/>
<path fill="#FFFEFE" opacity="1.000000" stroke="none" 
	d="
M434.556274,99.469879 
	C434.657379,99.392868 434.646484,99.707916 434.646484,99.707916 
	C434.646484,99.707916 434.455139,99.546890 434.556274,99.469879 
z"/>
</svg>