<svg width="15" height="10" viewBox="0 0 15 10" fill="none" xmlns="http://www.w3.org/2000/svg">
<path fill-rule="evenodd" clip-rule="evenodd" d="M0.362305 5.21059C0.362305 5.07798 0.414983 4.95081 0.508751 4.85704C0.602519 4.76327 0.729696 4.71059 0.862305 4.71059H12.6553L9.5083 1.56459C9.41442 1.47071 9.36167 1.34337 9.36167 1.21059C9.36167 1.07782 9.41442 0.950479 9.5083 0.856592C9.60219 0.762706 9.72953 0.709961 9.8623 0.709961C9.99508 0.709961 10.1224 0.762706 10.2163 0.856592L14.2163 4.85659C14.2629 4.90304 14.2998 4.95821 14.325 5.01896C14.3502 5.0797 14.3632 5.14482 14.3632 5.21059C14.3632 5.27636 14.3502 5.34148 14.325 5.40223C14.2998 5.46297 14.2629 5.51815 14.2163 5.56459L10.2163 9.56459C10.1224 9.65848 9.99508 9.71122 9.8623 9.71122C9.72953 9.71122 9.60219 9.65848 9.5083 9.56459C9.41442 9.47071 9.36167 9.34337 9.36167 9.21059C9.36167 9.07782 9.41442 8.95048 9.5083 8.85659L12.6553 5.71059H0.862305C0.729696 5.71059 0.602519 5.65791 0.508751 5.56415C0.414983 5.47038 0.362305 5.3432 0.362305 5.21059Z" fill="#2566FF"/>
</svg>
