<svg width="34" height="33" viewBox="0 0 34 33" fill="none" xmlns="http://www.w3.org/2000/svg">
<path d="M24.3058 19.4157C24.4384 18.3546 24.5379 17.2934 24.5379 16.2001C24.5379 15.1068 24.4384 14.0457 24.3058 12.9845H29.9099C30.1752 14.0135 30.341 15.0907 30.341 16.2001C30.341 17.3095 30.1752 18.3867 29.9099 19.4157H24.3058ZM21.3711 28.3551C22.3659 26.5705 23.1286 24.6411 23.6591 22.6313H28.5503C26.944 25.3136 24.3955 27.3454 21.3711 28.3551ZM20.9566 19.4157H13.197C13.0312 18.3546 12.9317 17.2934 12.9317 16.2001C12.9317 15.1068 13.0312 14.0296 13.197 12.9845H20.9566C21.1058 14.0296 21.2218 15.1068 21.2218 16.2001C21.2218 17.2934 21.1058 18.3546 20.9566 19.4157ZM17.0768 28.9982C15.7006 27.0689 14.5898 24.9305 13.91 22.6313H20.2436C19.5638 24.9305 18.4529 27.0689 17.0768 28.9982ZM10.4447 9.7689H5.60329C7.19309 7.07939 9.73971 5.04434 12.7659 4.04511C11.7711 5.82978 11.025 7.75914 10.4447 9.7689ZM5.60329 22.6313H10.4447C11.025 24.6411 11.7711 26.5705 12.7659 28.3551C9.74606 27.3449 7.20302 25.3127 5.60329 22.6313ZM4.24371 19.4157C3.97843 18.3867 3.81262 17.3095 3.81262 16.2001C3.81262 15.0907 3.97843 14.0135 4.24371 12.9845H9.84782C9.71518 14.0457 9.6157 15.1068 9.6157 16.2001C9.6157 17.2934 9.71518 18.3546 9.84782 19.4157H4.24371ZM17.0768 3.38591C18.4529 5.31528 19.5638 7.46974 20.2436 9.7689H13.91C14.5898 7.46974 15.7006 5.31528 17.0768 3.38591ZM28.5503 9.7689H23.6591C23.1402 7.77757 22.3718 5.85534 21.3711 4.04511C24.4218 5.05803 26.9586 7.09994 28.5503 9.7689ZM17.0768 0.12207C7.90793 0.12207 0.496582 7.35719 0.496582 16.2001C0.496582 20.4643 2.24342 24.5538 5.35281 27.569C6.89243 29.062 8.72021 30.2463 10.7318 31.0543C12.7434 31.8623 14.8994 32.2782 17.0768 32.2782C21.4741 32.2782 25.6914 30.5842 28.8008 27.569C31.9102 24.5538 33.657 20.4643 33.657 16.2001C33.657 14.0887 33.2281 11.998 32.3949 10.0473C31.5617 8.09664 30.3404 6.32421 28.8008 4.83122C27.2612 3.33824 25.4334 2.15394 23.4218 1.34594C21.4102 0.537941 19.2541 0.12207 17.0768 0.12207Z" fill="#02336E"/>
</svg>
