<svg version="1.1" id="Layer_1" xmlns="http://www.w3.org/2000/svg" xmlns:xlink="http://www.w3.org/1999/xlink" x="0px" y="0px"
	 width="100%" viewBox="0 0 150 64" enable-background="new 0 0 150 64" xml:space="preserve">
<path fill="#FBFCFD" opacity="1.000000" stroke="none" 
	d="
M101.000000,65.000000 
	C67.333336,65.000000 34.166668,65.000000 1.000000,65.000000 
	C1.000000,43.666668 1.000000,22.333334 1.000000,1.000000 
	C51.000000,1.000000 101.000000,1.000000 151.000000,1.000000 
	C151.000000,22.333334 151.000000,43.666668 151.000000,65.000000 
	C134.500000,65.000000 118.000000,65.000000 101.000000,65.000000 
M130.953873,45.498287 
	C130.957245,45.665039 130.960632,45.831787 130.470154,46.485394 
	C130.470154,47.620491 130.470154,48.755592 130.470154,49.890690 
	C131.458694,48.306454 137.307648,49.737957 133.191467,45.391552 
	C133.152069,45.221313 133.112686,45.051079 133.071777,44.191555 
	C132.535995,43.577999 131.837372,42.375179 131.497147,42.469208 
	C130.701843,42.689014 130.078598,43.531303 129.385666,44.121506 
	C129.911850,44.413685 130.438049,44.705868 130.953873,45.498287 
M16.718962,20.182039 
	C20.783947,22.756088 24.848930,25.330135 28.923040,27.909962 
	C30.323236,23.517876 24.512249,19.479109 15.245701,18.675644 
	C11.130525,20.508095 6.953696,22.222036 2.964787,24.297199 
	C2.346620,24.618788 2.588736,26.594028 2.379017,28.224335 
	C7.480482,25.119488 11.793346,22.494598 16.718962,20.182039 
M25.904512,44.051842 
	C26.584528,43.618183 27.264544,43.184525 28.552410,42.591747 
	C28.767189,41.370026 28.981970,40.148300 28.982956,38.330513 
	C28.068613,37.848141 27.154270,37.365765 25.837711,36.315552 
	C19.188025,30.512569 12.584944,30.475969 6.034737,36.480118 
	C5.916813,36.588211 5.843074,36.744503 5.129275,36.983372 
	C4.357757,37.632500 3.586238,38.281631 2.302462,39.304382 
	C2.883627,40.450958 3.464792,41.597534 4.517052,43.129967 
	C5.237081,43.464722 5.957110,43.799480 7.090043,44.708664 
	C12.692246,49.622944 18.387535,50.140984 24.201731,45.071678 
	C24.566181,44.753918 24.934177,44.440224 25.904512,44.051842 
M19.535561,28.240053 
	C22.616671,30.594099 25.697781,32.948147 28.778889,35.302193 
	C29.209278,35.015854 29.639666,34.729519 30.070055,34.443184 
	C29.438499,33.128059 29.151819,31.240084 28.107151,30.611164 
	C25.540699,29.066090 22.625248,28.100718 19.629025,26.420689 
	C12.454854,20.526794 9.073371,29.244356 3.810543,30.691471 
	C2.930556,30.933441 2.599562,33.171974 2.138993,34.208614 
	C8.150499,31.925451 13.546256,29.876152 19.535561,28.240053 
M102.996841,37.720093 
	C100.033188,34.229851 97.069542,30.739609 94.054207,27.188492 
	C97.141937,23.848959 99.913414,20.851479 102.747787,17.785971 
	C95.503891,14.559710 93.890724,22.930508 88.529091,24.228371 
	C88.321571,21.731775 88.150505,19.673616 87.944138,17.190794 
	C86.190826,17.284565 84.682648,17.365227 83.377869,17.435011 
	C83.377869,24.947933 83.377869,31.860641 83.377869,39.022507 
	C85.168839,38.869690 86.592743,38.748196 88.036430,38.625011 
	C88.209053,35.876167 88.359833,33.475117 88.603622,29.592962 
	C91.440308,32.636490 93.371338,34.724072 95.319801,36.795254 
	C98.443130,40.115284 107.656746,39.852287 110.521652,36.370300 
	C112.273895,34.240631 121.732285,34.540913 123.707909,36.422455 
	C125.178986,37.823471 127.255341,38.588943 129.062119,39.637466 
	C129.361664,39.220356 129.661209,38.803246 129.960770,38.386135 
	C127.532524,32.421013 124.919434,26.521948 122.754181,20.462847 
	C121.674866,17.442562 119.812668,17.049774 117.076584,17.065321 
	C114.378021,17.080654 112.514206,17.394258 111.360519,20.406248 
	C109.062737,26.405163 106.246231,32.205391 102.996841,37.720093 
M62.181831,31.083874 
	C60.598385,31.083874 59.014935,31.083874 57.319641,31.083874 
	C57.581055,36.402290 60.540447,38.635178 64.718742,38.888020 
	C69.878998,39.200272 75.493256,40.601540 79.522354,35.591587 
	C79.908295,35.111694 79.998550,34.363525 80.138138,33.720806 
	C81.292908,28.403841 78.655670,25.558638 72.188263,25.031578 
	C69.336487,24.799171 66.494278,24.449530 62.554279,24.039251 
	C69.307549,17.301573 74.276741,26.197128 79.780838,23.446486 
	C79.518173,19.403557 76.930283,17.586628 73.376427,17.076193 
	C70.766266,16.701302 68.066071,16.710026 65.423233,16.857273 
	C60.122700,17.152601 57.655380,19.311668 57.641792,23.339279 
	C57.628502,27.278736 60.221050,29.512592 65.400391,29.947021 
	C67.709976,30.140743 70.052216,30.084583 72.327980,30.457254 
	C73.011696,30.569218 73.750839,31.671547 74.004311,32.466877 
	C74.114937,32.813961 73.139992,33.898190 72.533340,34.018406 
	C68.942604,34.729942 65.215256,35.611717 62.181831,31.083874 
M41.144310,24.449928 
	C42.128704,23.630058 43.058838,22.195856 44.107464,22.103241 
	C47.522060,21.801655 50.979954,21.990318 54.750526,21.990318 
	C54.662113,20.043074 54.599640,18.667110 54.540787,17.370903 
	C47.952587,17.370903 41.760410,17.370903 35.593781,17.370903 
	C35.593781,24.664627 35.593781,31.568037 35.593781,38.670074 
	C42.108032,38.670074 48.329227,38.670074 54.726006,38.670074 
	C54.726006,37.022778 54.726006,35.629059 54.726006,33.805443 
	C51.043156,33.805443 47.579060,33.964573 44.145355,33.711441 
	C43.072556,33.632359 42.081783,32.440613 41.053463,31.758202 
	C42.037132,31.209105 42.995350,30.249384 44.009159,30.186543 
	C47.281559,29.983694 50.574417,30.110907 54.024910,30.110907 
	C54.024910,28.268324 54.024910,26.884151 54.024910,24.975405 
	C49.812347,24.975405 45.862595,24.975405 41.144310,24.449928 
M137.210968,23.423128 
	C134.665070,19.606001 132.565063,15.009920 126.158699,17.555330 
	C130.007095,24.125654 137.434830,29.187246 135.160950,38.395805 
	C137.461731,38.395805 139.038452,38.395805 141.225708,38.395805 
	C138.716812,29.120785 146.248108,24.191193 149.846573,17.414391 
	C145.999893,16.289680 143.279572,17.003542 141.330505,20.494204 
	C140.560806,21.872681 138.979187,22.797792 137.210968,23.423128 
z"/>
<path fill="#105A95" opacity="1.000000" stroke="none" 
	d="
M103.320435,37.903896 
	C106.246231,32.205391 109.062737,26.405163 111.360519,20.406248 
	C112.514206,17.394258 114.378021,17.080654 117.076584,17.065321 
	C119.812668,17.049774 121.674866,17.442562 122.754181,20.462847 
	C124.919434,26.521948 127.532524,32.421013 129.960770,38.386135 
	C129.661209,38.803246 129.361664,39.220356 129.062119,39.637466 
	C127.255341,38.588943 125.178986,37.823471 123.707909,36.422455 
	C121.732285,34.540913 112.273895,34.240631 110.521652,36.370300 
	C107.656746,39.852287 98.443130,40.115284 95.319801,36.795254 
	C93.371338,34.724072 91.440308,32.636490 88.603622,29.592962 
	C88.359833,33.475117 88.209053,35.876167 88.036430,38.625011 
	C86.592743,38.748196 85.168839,38.869690 83.377869,39.022507 
	C83.377869,31.860641 83.377869,24.947933 83.377869,17.435011 
	C84.682648,17.365227 86.190826,17.284565 87.944138,17.190794 
	C88.150505,19.673616 88.321571,21.731775 88.529091,24.228371 
	C93.890724,22.930508 95.503891,14.559710 102.747787,17.785971 
	C99.913414,20.851479 97.141937,23.848959 94.054207,27.188492 
	C97.069542,30.739609 100.033188,34.229851 103.320435,37.903896 
M118.261032,30.007982 
	C119.047577,29.931332 119.834122,29.854683 121.096275,29.731684 
	C119.777405,26.877316 118.608177,24.346830 116.872009,20.589346 
	C115.276772,24.512690 114.248749,27.041023 113.042015,30.008871 
	C114.843643,30.008871 116.151291,30.008871 118.261032,30.007982 
z"/>
<path fill="#0F5995" opacity="1.000000" stroke="none" 
	d="
M62.570019,31.231339 
	C65.215256,35.611717 68.942604,34.729942 72.533340,34.018406 
	C73.139992,33.898190 74.114937,32.813961 74.004311,32.466877 
	C73.750839,31.671547 73.011696,30.569218 72.327980,30.457254 
	C70.052216,30.084583 67.709976,30.140743 65.400391,29.947021 
	C60.221050,29.512592 57.628502,27.278736 57.641792,23.339279 
	C57.655380,19.311668 60.122700,17.152601 65.423233,16.857273 
	C68.066071,16.710026 70.766266,16.701302 73.376427,17.076193 
	C76.930283,17.586628 79.518173,19.403557 79.780838,23.446486 
	C74.276741,26.197128 69.307549,17.301573 62.554279,24.039251 
	C66.494278,24.449530 69.336487,24.799171 72.188263,25.031578 
	C78.655670,25.558638 81.292908,28.403841 80.138138,33.720806 
	C79.998550,34.363525 79.908295,35.111694 79.522354,35.591587 
	C75.493256,40.601540 69.878998,39.200272 64.718742,38.888020 
	C60.540447,38.635178 57.581055,36.402290 57.319641,31.083874 
	C59.014935,31.083874 60.598385,31.083874 62.570019,31.231339 
z"/>
<path fill="#105A95" opacity="1.000000" stroke="none" 
	d="
M41.528576,24.712666 
	C45.862595,24.975405 49.812347,24.975405 54.024910,24.975405 
	C54.024910,26.884151 54.024910,28.268324 54.024910,30.110907 
	C50.574417,30.110907 47.281559,29.983694 44.009159,30.186543 
	C42.995350,30.249384 42.037132,31.209105 41.053463,31.758202 
	C42.081783,32.440613 43.072556,33.632359 44.145355,33.711441 
	C47.579060,33.964573 51.043156,33.805443 54.726006,33.805443 
	C54.726006,35.629059 54.726006,37.022778 54.726006,38.670074 
	C48.329227,38.670074 42.108032,38.670074 35.593781,38.670074 
	C35.593781,31.568037 35.593781,24.664627 35.593781,17.370903 
	C41.760410,17.370903 47.952587,17.370903 54.540787,17.370903 
	C54.599640,18.667110 54.662113,20.043074 54.750526,21.990318 
	C50.979954,21.990318 47.522060,21.801655 44.107464,22.103241 
	C43.058838,22.195856 42.128704,23.630058 41.528576,24.712666 
z"/>
<path fill="#115B96" opacity="1.000000" stroke="none" 
	d="
M137.489105,23.676233 
	C138.979187,22.797792 140.560806,21.872681 141.330505,20.494204 
	C143.279572,17.003542 145.999893,16.289680 149.846573,17.414391 
	C146.248108,24.191193 138.716812,29.120785 141.225708,38.395805 
	C139.038452,38.395805 137.461731,38.395805 135.160950,38.395805 
	C137.434830,29.187246 130.007095,24.125654 126.158699,17.555330 
	C132.565063,15.009920 134.665070,19.606001 137.489105,23.676233 
z"/>
<path fill="#15569C" opacity="1.000000" stroke="none" 
	d="
M4.045956,42.744110 
	C3.464792,41.597534 2.883627,40.450958 3.039306,39.139706 
	C12.249683,38.958878 20.723215,38.942730 29.196749,38.926582 
	C28.981970,40.148300 28.767189,41.370026 27.919901,42.428299 
	C19.540247,42.424603 11.793101,42.584358 4.045956,42.744110 
z"/>
<path fill="#0A83C6" opacity="1.000000" stroke="none" 
	d="
M5.748717,36.878304 
	C5.843074,36.744503 5.916813,36.588211 6.034737,36.480118 
	C12.584944,30.475969 19.188025,30.512569 25.555264,36.635662 
	C18.764782,36.929951 12.256750,36.904125 5.748717,36.878304 
z"/>
<path fill="#2187C5" opacity="1.000000" stroke="none" 
	d="
M18.942013,27.826853 
	C13.546256,29.876152 8.150499,31.925451 2.138993,34.208614 
	C2.599562,33.171974 2.930556,30.933441 3.810543,30.691471 
	C9.073371,29.244356 12.454854,20.526794 19.559677,26.784763 
	C19.241251,27.321184 19.058477,27.547190 18.942013,27.826853 
z"/>
<path fill="#292978" opacity="1.000000" stroke="none" 
	d="
M25.300526,44.124638 
	C24.934177,44.440224 24.566181,44.753918 24.201731,45.071678 
	C18.387535,50.140984 12.692246,49.622944 7.372062,44.383163 
	C13.536228,44.079990 19.418377,44.102314 25.300526,44.124638 
z"/>
<path fill="#1387C8" opacity="1.000000" stroke="none" 
	d="
M16.106211,19.869709 
	C11.793346,22.494598 7.480482,25.119488 2.379017,28.224335 
	C2.588736,26.594028 2.346620,24.618788 2.964787,24.297199 
	C6.953696,22.222036 11.130525,20.508095 15.638300,19.012903 
	C16.056002,19.523344 16.081106,19.696527 16.106211,19.869709 
z"/>
<path fill="#293983" opacity="1.000000" stroke="none" 
	d="
M16.412586,20.025875 
	C16.081106,19.696527 16.056002,19.523344 15.986316,19.091311 
	C24.512249,19.479109 30.323236,23.517876 28.923040,27.909962 
	C24.848930,25.330135 20.783947,22.756088 16.412586,20.025875 
z"/>
<path fill="#046DB1" opacity="1.000000" stroke="none" 
	d="
M5.438996,36.930836 
	C12.256750,36.904125 18.764782,36.929951 25.756371,36.919582 
	C27.154270,37.365765 28.068613,37.848141 29.089851,38.628548 
	C20.723215,38.942730 12.249683,38.958878 3.295434,38.952896 
	C3.586238,38.281631 4.357757,37.632500 5.438996,36.930836 
z"/>
<path fill="#1C3C85" opacity="1.000000" stroke="none" 
	d="
M25.602520,44.088242 
	C19.418377,44.102314 13.536228,44.079990 7.165609,44.095951 
	C5.957110,43.799480 5.237081,43.464722 4.281504,42.937042 
	C11.793101,42.584358 19.540247,42.424603 27.615974,42.507858 
	C27.264544,43.184525 26.584528,43.618183 25.602520,44.088242 
z"/>
<path fill="#313580" opacity="1.000000" stroke="none" 
	d="
M19.238787,28.033453 
	C19.058477,27.547190 19.241251,27.321184 19.670254,27.025501 
	C22.625248,28.100718 25.540699,29.066090 28.107151,30.611164 
	C29.151819,31.240084 29.438499,33.128059 30.070055,34.443184 
	C29.639666,34.729519 29.209278,35.015854 28.778889,35.302193 
	C25.697781,32.948147 22.616671,30.594099 19.238787,28.033453 
z"/>
<path fill="#BFD3E2" opacity="1.000000" stroke="none" 
	d="
M133.339905,45.894989 
	C137.307648,49.737957 131.458694,48.306454 130.470154,49.890690 
	C130.470154,48.755592 130.470154,47.620491 130.965576,46.373768 
	C132.087311,46.139759 132.713608,46.017372 133.339905,45.894989 
z"/>
<path fill="#BFD3E2" opacity="1.000000" stroke="none" 
	d="
M130.964233,44.998047 
	C130.438049,44.705868 129.911850,44.413685 129.385666,44.121506 
	C130.078598,43.531303 130.701843,42.689014 131.497147,42.469208 
	C131.837372,42.375179 132.535995,43.577999 132.722443,44.582764 
	C131.903473,44.981998 131.433853,44.990025 130.964233,44.998047 
z"/>
<path fill="#6394BA" opacity="1.000000" stroke="none" 
	d="
M130.959045,45.248169 
	C131.433853,44.990025 131.903473,44.981998 132.723206,44.927406 
	C133.112686,45.051079 133.152069,45.221313 133.265686,45.643269 
	C132.713608,46.017372 132.087311,46.139759 131.212509,46.130341 
	C130.960632,45.831787 130.957245,45.665039 130.959045,45.248169 
z"/>
<path fill="#EEF3F7" opacity="1.000000" stroke="none" 
	d="
M117.859985,30.008427 
	C116.151291,30.008871 114.843643,30.008871 113.042015,30.008871 
	C114.248749,27.041023 115.276772,24.512690 116.872009,20.589346 
	C118.608177,24.346830 119.777405,26.877316 121.096275,29.731684 
	C119.834122,29.854683 119.047577,29.931332 117.859985,30.008427 
z"/>
</svg>