<?xml version="1.0" encoding="UTF-8"?>
<svg version="1.1" xmlns="http://www.w3.org/2000/svg" width="150" height="124">
<path d="M0 0 C3.28731688 1.09577229 3.88003756 1.77804601 6 4.375 C9.11518006 8.04265857 12.36664625 11.5194624 15.75 14.9375 C16.67296875 15.87464844 17.5959375 16.81179687 18.546875 17.77734375 C20.86717021 20.1794115 20.86717021 20.1794115 24 21 C24.721875 20.278125 25.44375 19.55625 26.1875 18.8125 C28.79166667 16.20833333 31.39583333 13.60416667 34 11 C34.721875 10.236875 35.44375 9.47375 36.1875 8.6875 C38 7 38 7 40 7 C40.66 5.68 41.32 4.36 42 3 C42.66 3 43.32 3 44 3 C44.33 2.01 44.66 1.02 45 0 C45.66 0 46.32 0 47 0 C47.02527062 6.39037231 47.04283317 12.78073183 47.05493164 19.17114258 C47.05997308 21.34692873 47.06680607 23.52271147 47.07543945 25.69848633 C47.08751338 28.81853067 47.09323005 31.93853038 47.09765625 35.05859375 C47.10281754 36.03775253 47.10797882 37.01691132 47.11329651 38.02574158 C47.11337204 38.92659988 47.11344757 39.82745819 47.11352539 40.75561523 C47.115746 41.55281479 47.11796661 42.35001434 47.12025452 43.17137146 C47 45 47 45 46 46 C44.58774954 46.0928726 43.17091066 46.11746772 41.75561523 46.11352539 C40.85475693 46.11344986 39.95389862 46.11337433 39.02574158 46.11329651 C38.04658279 46.10813522 37.06742401 46.10297394 36.05859375 46.09765625 C35.06118668 46.0962413 34.0637796 46.09482635 33.03614807 46.09336853 C29.83656876 46.08775114 26.63705831 46.07519571 23.4375 46.0625 C21.27408955 46.05748724 19.11067801 46.05292395 16.94726562 46.04882812 C11.63148675 46.03777607 6.31574829 46.02102104 1 46 C0.07312675 43.21938025 -0.12193396 41.57948141 -0.11352539 38.7121582 C-0.11344986 37.85149246 -0.11337433 36.99082672 -0.11329651 36.1040802 C-0.10813522 35.17899155 -0.10297394 34.25390289 -0.09765625 33.30078125 C-0.0962413 32.35059616 -0.09482635 31.40041107 -0.09336853 30.4214325 C-0.08776875 27.38508971 -0.07521632 24.34882052 -0.0625 21.3125 C-0.05748497 19.25455836 -0.05292207 17.19661556 -0.04882812 15.13867188 C-0.0377994 10.09241954 -0.02053493 5.04622225 0 0 Z " fill="#848C67" transform="translate(51,8)"/>
<path d="M0 0 C0 0.66 0 1.32 0 2 C-0.66 2 -1.32 2 -2 2 C-2.27183105 2.72469482 -2.54366211 3.44938965 -2.82373047 4.19604492 C-3.96933313 6.92689727 -5.28613155 9.33351479 -6.8203125 11.86328125 C-7.35527344 12.74951172 -7.89023438 13.63574219 -8.44140625 14.54882812 C-8.99699219 15.46083984 -9.55257812 16.37285156 -10.125 17.3125 C-10.68832031 18.24384766 -11.25164062 19.17519531 -11.83203125 20.13476562 C-13.2180446 22.42521142 -14.60745628 24.71352076 -16 27 C-14.20866022 27.05391993 -12.41686101 27.09275571 -10.625 27.125 C-9.62726563 27.14820312 -8.62953125 27.17140625 -7.6015625 27.1953125 C-4.83737827 27.27216848 -4.83737827 27.27216848 -3 25 C-2.3574765 22.93125966 -2.3574765 22.93125966 -2 21 C-1.34 21 -0.68 21 0 21 C0 23.31 0 25.62 0 28 C3.16943902 27.31589034 3.16943902 27.31589034 4.33447266 24.63916016 C4.7732373 23.61612793 5.21200195 22.5930957 5.6640625 21.5390625 C6.14617187 20.42789063 6.62828125 19.31671875 7.125 18.171875 C7.8675 16.41617188 7.8675 16.41617188 8.625 14.625 C9.12773438 13.46226563 9.63046875 12.29953125 10.1484375 11.1015625 C12.74675572 5.11731126 12.74675572 5.11731126 15 -1 C15.99 -1 16.98 -1 18 -1 C18.31227539 -0.15703369 18.62455078 0.68593262 18.94628906 1.55444336 C20.1116649 4.6772797 21.2908985 7.79411223 22.47998047 10.90795898 C22.99183638 12.25705796 23.4980633 13.60830654 23.99853516 14.96166992 C24.71871364 16.90615184 25.45874826 18.84201767 26.203125 20.77734375 C26.64301758 21.94515381 27.08291016 23.11296387 27.53613281 24.31616211 C28.71586125 27.15098958 28.71586125 27.15098958 31.17480469 27.88891602 C31.77711914 27.92557373 32.37943359 27.96223145 33 28 C33 28.66 33 29.32 33 30 C28.38 30 23.76 30 19 30 C19 29.34 19 28.68 19 28 C19.99 27.67 20.98 27.34 22 27 C21.34 25.02 20.68 23.04 20 21 C16.37 20.67 12.74 20.34 9 20 C8.34 22.64 7.68 25.28 7 28 C7.99 28 8.98 28 10 28 C9.505 29.485 9.505 29.485 9 31 C-1.89 30.67 -12.78 30.34 -24 30 C-22.49544416 26.2386104 -21.10024233 23.33081184 -18.99609375 19.953125 C-18.42052734 19.02628906 -17.84496094 18.09945312 -17.25195312 17.14453125 C-16.65318359 16.18933594 -16.05441406 15.23414062 -15.4375 14.25 C-14.83486328 13.27933594 -14.23222656 12.30867188 -13.61132812 11.30859375 C-9.15258291 4.15258291 -9.15258291 4.15258291 -8 3 C-11.70769913 2.71672927 -15.30339206 2.5358764 -19 3 C-21.23025247 5.3202093 -21.23025247 5.3202093 -22 8 C-22.33 8 -22.66 8 -23 8 C-23 5.36 -23 2.72 -23 0 C-7.25512528 -1.33257403 -7.25512528 -1.33257403 0 0 Z M14 7 C12.68 10.3 11.36 13.6 10 17 C12.97 17 15.94 17 19 17 C18.55090939 15.51800098 18.09043436 14.03944764 17.625 12.5625 C17.24214844 11.32693359 17.24214844 11.32693359 16.8515625 10.06640625 C16.19117773 7.82201984 16.19117773 7.82201984 14 7 Z " fill="#616B3C" transform="translate(109,64)"/>
<path d="M0 0 C1.41279706 -0.16301505 2.83108128 -0.2788797 4.25 -0.375 C5.43335938 -0.47941406 5.43335938 -0.47941406 6.640625 -0.5859375 C9 0 9 0 11.09375 2.5625 C13.0566854 6.10221957 14.71935244 9.63428478 16.25 13.375 C16.518125 14.01566406 16.78625 14.65632813 17.0625 15.31640625 C17.71396273 16.8752635 18.35779672 18.43730535 19 20 C21.03189929 17.96810071 21.65032968 16.74001881 22.69140625 14.12109375 C22.99626953 13.36505859 23.30113281 12.60902344 23.61523438 11.83007812 C23.92783203 11.04052734 24.24042969 10.25097656 24.5625 9.4375 C25.1865943 7.87281551 25.81278729 6.30896593 26.44140625 4.74609375 C26.71670166 4.05185303 26.99199707 3.3576123 27.27563477 2.64233398 C28 1 28 1 29 0 C30.51928038 -0.07179964 32.04167482 -0.08392007 33.5625 -0.0625 C34.38878906 -0.05347656 35.21507812 -0.04445312 36.06640625 -0.03515625 C36.70449219 -0.02355469 37.34257813 -0.01195312 38 0 C38.495 0.99 38.495 0.99 39 2 C37.35 2.33 35.7 2.66 34 3 C34 11.58 34 20.16 34 29 C35.32 29 36.64 29 38 29 C37.505 30.485 37.505 30.485 37 32 C32.71 32 28.42 32 24 32 C24 31.01 24 30.02 24 29 C25.32 29 26.64 29 28 29 C27.67 23.39 27.34 17.78 27 12 C24.36 18.27 21.72 24.54 19 31 C16 30 16 30 14.92504883 28.14233398 C14.44588013 26.95619507 14.44588013 26.95619507 13.95703125 25.74609375 C13.60576172 24.89208984 13.25449219 24.03808594 12.89257812 23.15820312 C12.53615234 22.26037109 12.17972656 21.36253906 11.8125 20.4375 C11.44447266 19.53580078 11.07644531 18.63410156 10.69726562 17.70507812 C9.78832449 15.47404078 8.89288393 13.23751199 8 11 C8 16.61 8 22.22 8 28 C8.99 28.33 9.98 28.66 11 29 C11 29.66 11 30.32 11 31 C7.37 31 3.74 31 0 31 C0 30.34 0 29.68 0 29 C1.32 29 2.64 29 4 29 C4 20.75 4 12.5 4 4 C2.68 3.34 1.36 2.68 0 2 C0 1.34 0 0.68 0 0 Z " fill="#636D3F" transform="translate(7,63)"/>
<path d="M0 0 C3.27418868 1.09139623 3.83548146 1.72910317 5.9375 4.3125 C8.22498353 7.04463475 10.58317905 9.60225726 13.16015625 12.05859375 C13.98495483 12.84979614 13.98495483 12.84979614 14.82641602 13.65698242 C15.9330989 14.71038955 17.04941161 15.75378074 18.17553711 16.78637695 C19.71875 18.265625 19.71875 18.265625 22 21 C21.83242197 25.03027785 19.28429688 27.06068985 16.52734375 29.765625 C15.62822266 30.65507813 14.72910156 31.54453125 13.80273438 32.4609375 C12.85720703 33.38132813 11.91167969 34.30171875 10.9375 35.25 C9.97783027 36.19461673 9.01883771 37.13992195 8.06054688 38.0859375 C5.71361172 40.39749172 3.35996609 42.7017634 1 45 C-0.15410254 42.69179492 -0.1210297 41.39215724 -0.11352539 38.82568359 C-0.11344986 37.96494232 -0.11337433 37.10420105 -0.11329651 36.21737671 C-0.10813522 35.28712677 -0.10297394 34.35687683 -0.09765625 33.3984375 C-0.0962413 32.44683746 -0.09482635 31.49523743 -0.09336853 30.51480103 C-0.08776012 27.46816903 -0.07520619 24.42160987 -0.0625 21.375 C-0.05748608 19.31250106 -0.05292299 17.25000097 -0.04882812 15.1875 C-0.03778796 10.12497183 -0.02051767 5.06249827 0 0 Z " fill="#4F5A26" transform="translate(51,8)"/>
<path d="M0 0 C0.33 0 0.66 0 1 0 C1 13.2 1 26.4 1 40 C-6.875 33.25 -6.875 33.25 -9.52734375 30.5703125 C-10.09130859 30.003125 -10.65527344 29.4359375 -11.23632812 28.8515625 C-11.79771484 28.28179687 -12.35910156 27.71203125 -12.9375 27.125 C-13.82018555 26.23554687 -13.82018555 26.23554687 -14.72070312 25.328125 C-16.14947674 23.88773534 -17.57508132 22.4442033 -19 21 C-16.25080303 18.2404677 -13.48886781 15.49608858 -10.703125 12.7734375 C-9.55202105 11.64068829 -8.40098023 10.50787492 -7.25 9.375 C-6.66089844 8.80265625 -6.07179688 8.2303125 -5.46484375 7.640625 C-4.62373047 6.80917969 -4.62373047 6.80917969 -3.765625 5.9609375 C-3.25805664 5.46384277 -2.75048828 4.96674805 -2.22753906 4.45458984 C-0.76040071 2.89815793 -0.76040071 2.89815793 0 0 Z " fill="#4D5824" transform="translate(95,11)"/>
<path d="M0 0 C4.62 0 9.24 0 14 0 C13.67 0.99 13.34 1.98 13 3 C12.01 3 11.02 3 10 3 C10.10952116 6.79228144 10.24023241 10.5835384 10.375 14.375 C10.4059375 15.45523438 10.436875 16.53546875 10.46875 17.6484375 C10.50742187 18.6796875 10.54609375 19.7109375 10.5859375 20.7734375 C10.6173584 21.72653809 10.6487793 22.67963867 10.68115234 23.66162109 C10.78555796 26.18895176 10.78555796 26.18895176 13 28 C15.10417968 28.35639561 15.10417968 28.35639561 17.4375 28.3125 C18.21996094 28.32925781 19.00242187 28.34601563 19.80859375 28.36328125 C22.58148112 27.90360473 23.28817965 27.20433569 25 25 C25.50330762 22.58936558 25.50330762 22.58936558 25.51171875 19.89453125 C25.54716797 18.91162109 25.58261719 17.92871094 25.61914062 16.91601562 C25.64169922 15.89185547 25.66425781 14.86769531 25.6875 13.8125 C25.72166016 12.77673828 25.75582031 11.74097656 25.79101562 10.67382812 C25.87352642 8.1159934 25.94266572 5.55850277 26 3 C24.68 2.67 23.36 2.34 22 2 C22 1.34 22 0.68 22 0 C25.63 0 29.26 0 33 0 C32.67 0.99 32.34 1.98 32 3 C31.01 3 30.02 3 29 3 C29.01571045 3.57443848 29.0314209 4.14887695 29.04760742 4.74072266 C29.11035513 7.36871309 29.14911506 9.99654537 29.1875 12.625 C29.21263672 13.52863281 29.23777344 14.43226562 29.26367188 15.36328125 C29.32199361 20.68999965 29.01239817 24.40136318 26 29 C22.23003972 32.42723662 18.33519099 32.50534152 13.4453125 32.359375 C9.85236653 31.83133821 7.67278644 30.3986545 5 28 C3.99994696 24.99984088 3.88424415 23.02576244 3.90234375 19.89453125 C3.90717773 18.42016602 3.90717773 18.42016602 3.91210938 16.91601562 C3.92048828 15.89185547 3.92886719 14.86769531 3.9375 13.8125 C3.94201172 12.77673828 3.94652344 11.74097656 3.95117188 10.67382812 C3.9629599 8.11582734 3.97941485 5.55794267 4 3 C2.68 2.67 1.36 2.34 0 2 C0 1.34 0 0.68 0 0 Z " fill="#535E2B" transform="translate(49,63)"/>
<path d="M0 0 C3.07227591 -0.35449337 5.93598841 -0.47875181 9 0 C11.16381259 2.16381259 11.83021832 3.27723229 13 6 C13.4434375 6.94359375 13.886875 7.8871875 14.34375 8.859375 C16.71120396 14.14668884 18.31445702 18.13013555 18 24 C18.66 24 19.32 24 20 24 C19.67 26.31 19.34 28.62 19 31 C16 30 16 30 14.92504883 28.14233398 C14.44588013 26.95619507 14.44588013 26.95619507 13.95703125 25.74609375 C13.60576172 24.89208984 13.25449219 24.03808594 12.89257812 23.15820312 C12.53615234 22.26037109 12.17972656 21.36253906 11.8125 20.4375 C11.44447266 19.53580078 11.07644531 18.63410156 10.69726562 17.70507812 C9.78832449 15.47404078 8.89288393 13.23751199 8 11 C8 16.61 8 22.22 8 28 C8.99 28.33 9.98 28.66 11 29 C11 29.66 11 30.32 11 31 C7.37 31 3.74 31 0 31 C0 30.34 0 29.68 0 29 C1.32 29 2.64 29 4 29 C4 20.75 4 12.5 4 4 C2.68 3.34 1.36 2.68 0 2 C0 1.34 0 0.68 0 0 Z " fill="#555F2D" transform="translate(7,63)"/>
<path d="M0 0 C0 6.6 0 13.2 0 20 C-6.6 20 -13.2 20 -20 20 C-13.23827936 12.11132592 -13.23827936 12.11132592 -10.60546875 9.47265625 C-10.04279297 8.90869141 -9.48011719 8.34472656 -8.90039062 7.76367188 C-8.05250977 6.9215918 -8.05250977 6.9215918 -7.1875 6.0625 C-6.31061523 5.17981445 -6.31061523 5.17981445 -5.41601562 4.27929688 C-1.12677846 0 -1.12677846 0 0 0 Z " fill="#4E5925" transform="translate(74,33)"/>
<path d="M0 0 C7.88867408 6.76172064 7.88867408 6.76172064 10.52734375 9.39453125 C11.09130859 9.95720703 11.65527344 10.51988281 12.23632812 11.09960938 C12.79771484 11.66486328 13.35910156 12.23011719 13.9375 12.8125 C14.52595703 13.39708984 15.11441406 13.98167969 15.72070312 14.58398438 C20 18.87322154 20 18.87322154 20 20 C13.4 20 6.8 20 0 20 C0 13.4 0 6.8 0 0 Z " fill="#4D5824" transform="translate(75,33)"/>
<path d="M0 0 C0.99 0 1.98 0 3 0 C3.31227539 0.84296631 3.62455078 1.68593262 3.94628906 2.55444336 C5.1116649 5.6772797 6.2908985 8.79411223 7.47998047 11.90795898 C7.99183638 13.25705796 8.4980633 14.60830654 8.99853516 15.96166992 C9.71871364 17.90615184 10.45874826 19.84201767 11.203125 21.77734375 C11.86296387 23.52905884 11.86296387 23.52905884 12.53613281 25.31616211 C13.71586125 28.15098958 13.71586125 28.15098958 16.17480469 28.88891602 C16.77711914 28.92557373 17.37943359 28.96223145 18 29 C18 29.66 18 30.32 18 31 C13.38 31 8.76 31 4 31 C4 30.34 4 29.68 4 29 C4.99 28.67 5.98 28.34 7 28 C6.67 25.36 6.34 22.72 6 20 C2.04 20 -1.92 20 -6 20 C-6 19.34 -6 18.68 -6 18 C-3.03 17.67 -0.06 17.34 3 17 C2.67 16.113125 2.34 15.22625 2 14.3125 C1.08777857 11.29076653 0.81669042 9.11626294 1 6 C0.34 6 -0.32 6 -1 6 C-0.67 4.02 -0.34 2.04 0 0 Z " fill="#56612E" transform="translate(124,63)"/>
<path d="M0 0 C1.32 0 2.64 0 4 0 C4.33 3.3 4.66 6.6 5 10 C5.66 10 6.32 10 7 10 C6.67 8.35 6.34 6.7 6 5 C6.99 4.67 7.98 4.34 9 4 C9.66 4.33 10.32 4.66 11 5 C11.44921875 6.8125 11.44921875 6.8125 11.6875 9 C11.77386719 9.721875 11.86023438 10.44375 11.94921875 11.1875 C11.97435547 12.0846875 11.97435547 12.0846875 12 13 C11 14 11 14 7.25390625 14.09765625 C5.69007451 14.09097892 4.1262588 14.07901411 2.5625 14.0625 C1.77294922 14.05798828 0.98339844 14.05347656 0.16992188 14.04882812 C-1.88674653 14.03655474 -3.94337944 14.01864007 -6 14 C-6.66 14 -7.32 14 -8 14 C-9.66965451 13.68197057 -11.33678518 13.35015049 -13 13 C-13.33 10.36 -13.66 7.72 -14 5 C-12.68 4.34 -11.36 3.68 -10 3 C-9.67 4.32 -9.34 5.64 -9 7 C-9.66 7 -10.32 7 -11 7 C-11 8.65 -11 10.3 -11 12 C-8.73985111 11.15773072 -8.73985111 11.15773072 -8.125 8.5625 C-7 6 -7 6 -4.875 4.6875 C-3.946875 4.3471875 -3.946875 4.3471875 -3 4 C-2.01 4.66 -1.02 5.32 0 6 C0 6.99 0 7.98 0 9 C-1.65 9.33 -3.3 9.66 -5 10 C-5 10.66 -5 11.32 -5 12 C-3.02 11.67 -1.04 11.34 1 11 C1.0309375 9.1128125 1.0309375 9.1128125 1.0625 7.1875 C1.07410156 6.47980469 1.08570312 5.77210937 1.09765625 5.04296875 C1.08263217 2.79694539 1.08263217 2.79694539 0 0 Z " fill="#798159" transform="translate(88,101)"/>
<path d="M0 0 C0.99 0.33 1.98 0.66 3 1 C1.94852977 4.15441069 0.54538942 6.77961487 -1.0625 9.6875 C-1.88427734 11.17830078 -1.88427734 11.17830078 -2.72265625 12.69921875 C-3.14417969 13.45847656 -3.56570312 14.21773437 -4 15 C-0.04 15 3.92 15 8 15 C7.67 15.66 7.34 16.32 7 17 C3.37 16.67 -0.26 16.34 -4 16 C-4.66 18.64 -5.32 21.28 -6 24 C-5.01 24 -4.02 24 -3 24 C-3.495 25.485 -3.495 25.485 -4 27 C-14.89 26.67 -25.78 26.34 -37 26 C-36.505 24.515 -36.505 24.515 -36 23 C-35.67 23.66 -35.34 24.32 -35 25 C-33.68 25 -32.36 25 -31 25 C-31 23.68 -31 22.36 -31 21 C-30.34 21 -29.68 21 -29 21 C-29 21.66 -29 22.32 -29 23 C-27.20866022 23.05391993 -25.41686101 23.09275571 -23.625 23.125 C-22.62726563 23.14820312 -21.62953125 23.17140625 -20.6015625 23.1953125 C-17.83737827 23.27216848 -17.83737827 23.27216848 -16 21 C-15.3574765 18.93125966 -15.3574765 18.93125966 -15 17 C-14.34 17 -13.68 17 -13 17 C-13 19.31 -13 21.62 -13 24 C-9.85533319 23.32401588 -9.85533319 23.32401588 -8.74145508 20.77514648 C-8.33822021 19.81680908 -7.93498535 18.85847168 -7.51953125 17.87109375 C-7.07802734 16.83662109 -6.63652344 15.80214844 -6.18164062 14.73632812 C-5.72982422 13.64771484 -5.27800781 12.55910156 -4.8125 11.4375 C-4.11737305 9.7987793 -4.11737305 9.7987793 -3.40820312 8.12695312 C-2.26239543 5.42190197 -1.12685578 2.71298827 0 0 Z " fill="#6D764B" transform="translate(122,68)"/>
<path d="M0 0 C3.63 0 7.26 0 11 0 C10.67 0.99 10.34 1.98 10 3 C9.01 3 8.02 3 7 3 C7.01571045 3.57443848 7.0314209 4.14887695 7.04760742 4.74072266 C7.11035513 7.36871309 7.14911506 9.99654537 7.1875 12.625 C7.21263672 13.52863281 7.23777344 14.43226562 7.26367188 15.36328125 C7.32199361 20.68999965 7.01239817 24.40136318 4 29 C0.18171742 32.47116598 -3.67584361 32.35293538 -8.59765625 32.3984375 C-11.4448025 31.92622788 -12.84939688 30.87743182 -15 29 C-13.68 28.01 -12.36 27.02 -11 26 C-10.34 26.66 -9.68 27.32 -9 28 C-6.89582032 28.35639561 -6.89582032 28.35639561 -4.5625 28.3125 C-3.78003906 28.32925781 -2.99757813 28.34601563 -2.19140625 28.36328125 C0.58148112 27.90360473 1.28817965 27.20433569 3 25 C3.50330762 22.58936558 3.50330762 22.58936558 3.51171875 19.89453125 C3.54716797 18.91162109 3.58261719 17.92871094 3.61914062 16.91601562 C3.64169922 15.89185547 3.66425781 14.86769531 3.6875 13.8125 C3.72166016 12.77673828 3.75582031 11.74097656 3.79101562 10.67382812 C3.87352642 8.1159934 3.94266572 5.55850277 4 3 C2.68 2.67 1.36 2.34 0 2 C0 1.34 0 0.68 0 0 Z " fill="#677044" transform="translate(71,63)"/>
<path d="M0 0 C2.31 0 4.62 0 7 0 C6.34 1.65 5.68 3.3 5 5 C6.65 5 8.3 5 10 5 C9.34 3.35 8.68 1.7 8 0 C10.31 0 12.62 0 15 0 C15 0.66 15 1.32 15 2 C14.34 2 13.68 2 13 2 C13 4.97 13 7.94 13 11 C13.66 11 14.32 11 15 11 C15 11.66 15 12.32 15 13 C12.69 13 10.38 13 8 13 C8 12.34 8 11.68 8 11 C8.66 11 9.32 11 10 11 C10 9.68 10 8.36 10 7 C8.35 7 6.7 7 5 7 C5 8.32 5 9.64 5 11 C5.66 11 6.32 11 7 11 C7 11.66 7 12.32 7 13 C4.69 13 2.38 13 0 13 C0 12.34 0 11.68 0 11 C0.66 11 1.32 11 2 11 C2 8.03 2 5.06 2 2 C1.34 2 0.68 2 0 2 C0 1.34 0 0.68 0 0 Z " fill="#737C53" transform="translate(49,102)"/>
<path d="M0 0 C0.66 0 1.32 0 2 0 C2.02527062 6.39037231 2.04283317 12.78073183 2.05493164 19.17114258 C2.05997308 21.34692873 2.06680607 23.52271147 2.07543945 25.69848633 C2.08751338 28.81853067 2.09323005 31.93853038 2.09765625 35.05859375 C2.10281754 36.03775253 2.10797882 37.01691132 2.11329651 38.02574158 C2.11337204 38.92659988 2.11344757 39.82745819 2.11352539 40.75561523 C2.115746 41.55281479 2.11796661 42.35001434 2.12025452 43.17137146 C2 45 2 45 1 46 C-0.38160115 46.0927833 -1.76788038 46.11747043 -3.15258789 46.11352539 C-4.03342545 46.11344986 -4.914263 46.11337433 -5.8217926 46.11329651 C-6.77907761 46.10813522 -7.73636261 46.10297394 -8.72265625 46.09765625 C-9.69786728 46.0962413 -10.67307831 46.09482635 -11.67784119 46.09336853 C-14.80609143 46.08775133 -17.93427123 46.07519593 -21.0625 46.0625 C-23.17773334 46.05748722 -25.29296781 46.05292393 -27.40820312 46.04882812 C-32.60549296 46.03777631 -37.80274145 46.02102146 -43 46 C-43 45.67 -43 45.34 -43 45 C-36.07 45 -29.14 45 -22 45 C-22 38.4 -22 31.8 -22 25 C-21.67 25 -21.34 25 -21 25 C-21 31.6 -21 38.2 -21 45 C-17.90625 44.855625 -14.8125 44.71125 -11.625 44.5625 C-10.65127441 44.51939697 -9.67754883 44.47629395 -8.67431641 44.43188477 C-7.52455322 44.3747229 -7.52455322 44.3747229 -6.3515625 44.31640625 C-5.56604004 44.27974854 -4.78051758 44.24309082 -3.97119141 44.20532227 C-1.92476504 44.109109 -1.92476504 44.109109 0 43 C-0.05329468 41.09939819 -0.05329468 41.09939819 -0.10766602 39.16040039 C-0.23764449 34.47726204 -0.36094137 29.79396785 -0.48217773 25.1105957 C-0.53568003 23.08027305 -0.59101547 21.04999786 -0.64819336 19.01977539 C-0.7298755 16.10833986 -0.80505001 13.19679947 -0.87890625 10.28515625 C-0.90594131 9.3716188 -0.93297638 8.45808136 -0.96083069 7.51686096 C-1.01273771 5.34515498 -1.01189236 3.17229367 -1 1 C-0.67 0.67 -0.34 0.34 0 0 Z " fill="#6E774D" transform="translate(96,8)"/>
<path d="M0 0 C0.99 0 1.98 0 3 0 C4.03028044 2.45475514 5.04945504 4.91314351 6.0625 7.375 C6.35705078 8.07367188 6.65160156 8.77234375 6.95507812 9.4921875 C7.69591098 11.30504908 8.35396964 13.15123143 9 15 C8 17 8 17 5 19 C2.51953125 19.1953125 2.51953125 19.1953125 -0.1875 19.125 C-1.08855469 19.10695313 -1.98960938 19.08890625 -2.91796875 19.0703125 C-3.60503906 19.04710938 -4.29210937 19.02390625 -5 19 C-5 18.67 -5 18.34 -5 18 C-1.04 17.505 -1.04 17.505 3 17 C2.67 16.113125 2.34 15.22625 2 14.3125 C1.08777857 11.29076653 0.81669042 9.11626294 1 6 C0.34 6 -0.32 6 -1 6 C-0.67 4.02 -0.34 2.04 0 0 Z " fill="#5B6535" transform="translate(124,63)"/>
<path d="M0 0 C0.66 0.33 1.32 0.66 2 1 C2.33 1.99 2.66 2.98 3 4 C2.34 4 1.68 4 1 4 C1 5.65 1 7.3 1 9 C3.26014889 8.15773072 3.26014889 8.15773072 3.875 5.5625 C5 3 5 3 7.125 1.6875 C7.74375 1.460625 8.3625 1.23375 9 1 C9.99 1.66 10.98 2.32 12 3 C12 3.99 12 4.98 12 6 C10.35 6.33 8.7 6.66 7 7 C7.66 8.32 8.32 9.64 9 11 C8.443125 10.814375 7.88625 10.62875 7.3125 10.4375 C4.600867 9.92448835 2.65628961 10.3359276 0 11 C-2.21538462 4.6 -2.21538462 4.6 -1.125 1.5625 C-0.75375 1.046875 -0.3825 0.53125 0 0 Z " fill="#727B51" transform="translate(76,104)"/>
<path d="M0 0 C2.20192224 3.30288336 2.23959968 4.27462727 2.1953125 8.10546875 C2.18564453 9.57983398 2.18564453 9.57983398 2.17578125 11.08398438 C2.15902344 12.10814453 2.14226563 13.13230469 2.125 14.1875 C2.11597656 15.22326172 2.10695313 16.25902344 2.09765625 17.32617188 C2.0740786 19.88434685 2.0411703 22.44205748 2 25 C1.67 25 1.34 25 1 25 C0.67 19.39 0.34 13.78 0 8 C-1.98 12.62 -3.96 17.24 -6 22 C-6.33 21.34 -6.66 20.68 -7 20 C-7.66 20 -8.32 20 -9 20 C-8.42655063 17.13275314 -8.1385485 16.1385485 -6 14 C-4.9057162 11.63566661 -3.87034081 9.28001008 -2.875 6.875 C-2.59785156 6.21628906 -2.32070313 5.55757813 -2.03515625 4.87890625 C-1.35240609 3.25443173 -0.67562567 1.62745052 0 0 Z " fill="#7B845D" transform="translate(34,67)"/>
<path d="M0 0 C0.66 0.33 1.32 0.66 2 1 C0.61314777 4.1195572 -1.00189491 6.25855799 -3.40625 8.671875 C-4.06753906 9.33574219 -4.72882813 9.99960937 -5.41015625 10.68359375 C-6.09980469 11.36550781 -6.78945312 12.04742187 -7.5 12.75 C-8.18964844 13.44738281 -8.87929687 14.14476562 -9.58984375 14.86328125 C-10.25113281 15.52199219 -10.91242188 16.18070313 -11.59375 16.859375 C-12.19896484 17.46233398 -12.80417969 18.06529297 -13.42773438 18.68652344 C-15 20 -15 20 -17 20 C-14.40586749 14.16320185 -9.62867564 7.76249959 -3.8125 4.9375 C-1.47139069 3.72658139 -0.95928874 2.39822186 0 0 Z " fill="#697346" transform="translate(93,11)"/>
<path d="M0 0 C0.99 0.33 1.98 0.66 3 1 C1.94852977 4.15441069 0.54538942 6.77961487 -1.0625 9.6875 C-1.88427734 11.17830078 -1.88427734 11.17830078 -2.72265625 12.69921875 C-3.14417969 13.45847656 -3.56570312 14.21773437 -4 15 C-0.04 15 3.92 15 8 15 C7.67 15.66 7.34 16.32 7 17 C3.37 16.67 -0.26 16.34 -4 16 C-4.66 18.64 -5.32 21.28 -6 24 C-8 21 -8 21 -7.71484375 19.16015625 C-7.33005859 18.12181641 -7.33005859 18.12181641 -6.9375 17.0625 C-6.65132813 16.28132813 -6.36515625 15.50015625 -6.0703125 14.6953125 C-4.11373099 9.76815469 -2.08631925 4.87357579 0 0 Z " fill="#8C9371" transform="translate(122,68)"/>
<path d="M0 0 C0.66 0 1.32 0 2 0 C2 9.57 2 19.14 2 29 C1.34 29 0.68 29 0 29 C0 19.43 0 9.86 0 0 Z " fill="#9DA387" transform="translate(99,25)"/>
<path d="M0 0 C0.66 0 1.32 0 2 0 C2 9.57 2 19.14 2 29 C1.34 29 0.68 29 0 29 C0 19.43 0 9.86 0 0 Z " fill="#515C28" transform="translate(48,25)"/>
<path d="M0 0 C0.33 0 0.66 0 1 0 C1 8.25 1 16.5 1 25 C2.65 25 4.3 25 6 25 C5.67 25.99 5.34 26.98 5 28 C0.71 28 -3.58 28 -8 28 C-8 27.01 -8 26.02 -8 25 C-6.35 25 -4.7 25 -3 25 C-2.67 24.34 -2.34 23.68 -2 23 C-2 23.66 -2 24.32 -2 25 C-1.34 25 -0.68 25 0 25 C0 16.75 0 8.5 0 0 Z " fill="#545E2C" transform="translate(39,67)"/>
<path d="M0 0 C-0.33 1.32 -0.66 2.64 -1 4 C-1.33 3.34 -1.66 2.68 -2 2 C-3.93822596 2.03305502 -5.87585668 2.10249905 -7.8125 2.1875 C-8.89144531 2.22230469 -9.97039062 2.25710937 -11.08203125 2.29296875 C-14.21687383 2.71605606 -14.21687383 2.71605606 -15.82421875 5.55078125 C-16.21222656 6.35902344 -16.60023437 7.16726562 -17 8 C-17.33 8 -17.66 8 -18 8 C-18 5.36 -18 2.72 -18 0 C-15.56288386 -0.19484938 -13.12562602 -0.38115178 -10.6875 -0.5625 C-9.99720703 -0.61857422 -9.30691406 -0.67464844 -8.59570312 -0.73242188 C-5.37487726 -0.96581505 -3.09672655 -1.03224218 0 0 Z " fill="#606A3B" transform="translate(104,64)"/>
<path d="M0 0 C0.99 0.33 1.98 0.66 3 1 C2.67 3.31 2.34 5.62 2 8 C1.01 8 0.02 8 -1 8 C-1 9.32 -1 10.64 -1 12 C-2.32 12 -3.64 12 -5 12 C-4.52389341 7.00088076 -2.96837781 4.02167317 0 0 Z " fill="#515C29" transform="translate(92,81)"/>
<path d="M0 0 C2.625 0.5625 2.625 0.5625 5 2 C6 4.4375 6 4.4375 6 7 C4.875 8.875 4.875 8.875 3 10 C-0.34192692 9.75546876 -1.60543557 9.39456443 -4 7 C-3.8125 4.5 -3.8125 4.5 -3 2 C-2.01 1.34 -1.02 0.68 0 0 Z M0 2 C-1.29633621 3.06645115 -1.29633621 3.06645115 -1.0625 5.5625 C-1.041875 6.366875 -1.02125 7.17125 -1 8 C0.32 8 1.64 8 3 8 C3 6.35 3 4.7 3 3 C2.01 2.67 1.02 2.34 0 2 Z " fill="#70794F" transform="translate(68,105)"/>
<path d="M0 0 C3.63 0 7.26 0 11 0 C10.67 0.99 10.34 1.98 10 3 C8.35 2.67 6.7 2.34 5 2 C5 9.26 5 16.52 5 24 C4.67 24 4.34 24 4 24 C4 17.07 4 10.14 4 3 C2.68 2.67 1.36 2.34 0 2 C0 1.34 0 0.68 0 0 Z " fill="#838B67" transform="translate(71,63)"/>
<path d="M0 0 C-0.33 0.99 -0.66 1.98 -1 3 C-1.99 3 -2.98 3 -4 3 C-4 10.59 -4 18.18 -4 26 C-4.33 26 -4.66 26 -5 26 C-5 18.08 -5 10.16 -5 2 C-6.32 1.67 -7.64 1.34 -9 1 C-5.94152152 0.45627049 -3.11227195 0 0 0 Z " fill="#6D764B" transform="translate(63,63)"/>
<path d="M0 0 C0.99 0.66 1.98 1.32 3 2 C2.6875 4.375 2.6875 4.375 2 7 C1.01 7.66 0.02 8.32 -1 9 C-1 7.35 -1 5.7 -1 4 C-4.96 4 -8.92 4 -13 4 C-12.67 3.34 -12.34 2.68 -12 2 C-8.7 2.33 -5.4 2.66 -2 3 C-1.67 2.34 -1.34 1.68 -1 1 C-0.67 0.67 -0.34 0.34 0 0 Z " fill="#55602D" transform="translate(131,79)"/>
<path d="M0 0 C0.99 0.66 1.98 1.32 3 2 C3 2.66 3 3.32 3 4 C3.94875 3.95875 4.8975 3.9175 5.875 3.875 C9 4 9 4 11 6 C9.41753293 6.08153933 7.83383727 6.13943557 6.25 6.1875 C4.92742188 6.23970703 4.92742188 6.23970703 3.578125 6.29296875 C0.55328417 5.94923684 -0.75583602 4.99772541 -3 3 C-2.01 2.01 -1.02 1.02 0 0 Z " fill="#616B3C" transform="translate(59,89)"/>
<path d="M0 0 C0.66 0.99 1.32 1.98 2 3 C2.99 3.33 3.98 3.66 5 4 C5 4.66 5 5.32 5 6 C1.37 6 -2.26 6 -6 6 C-6 5.34 -6 4.68 -6 4 C-4.68 4 -3.36 4 -2 4 C-2 3.34 -2 2.68 -2 2 C-1.34 2 -0.68 2 0 2 C0 1.34 0 0.68 0 0 Z " fill="#687245" transform="translate(13,88)"/>
<path d="M0 0 C0.66 0.99 1.32 1.98 2 3 C4.05925139 3.72382467 4.05925139 3.72382467 6 4 C6 4.66 6 5.32 6 6 C1.38 6 -3.24 6 -8 6 C-8 5.34 -8 4.68 -8 4 C-5.36 4.33 -2.72 4.66 0 5 C-0.2784375 4.0409375 -0.2784375 4.0409375 -0.5625 3.0625 C-0.706875 2.381875 -0.85125 1.70125 -1 1 C-0.67 0.67 -0.34 0.34 0 0 Z " fill="#646E40" transform="translate(136,88)"/>
<path d="M0 0 C0.66 0 1.32 0 2 0 C2 4.95 2 9.9 2 15 C1.34 15 0.68 15 0 15 C0 10.05 0 5.1 0 0 Z " fill="#818964" transform="translate(44,39)"/>
<path d="M0 0 C0.66 0 1.32 0 2 0 C2 4.95 2 9.9 2 15 C1.34 15 0.68 15 0 15 C0 10.05 0 5.1 0 0 Z " fill="#535E2B" transform="translate(103,39)"/>
<path d="M0 0 C0.66 1.32 1.32 2.64 2 4 C-1.21182149 5.90608098 -3.53882603 6.22266247 -7.25 6.125 C-8.14203125 6.10695313 -9.0340625 6.08890625 -9.953125 6.0703125 C-10.96632813 6.03550781 -10.96632813 6.03550781 -12 6 C-12 5.67 -12 5.34 -12 5 C-9.36 4.67 -6.72 4.34 -4 4 C-3.67 3.01 -3.34 2.02 -3 1 C-2.01 0.67 -1.02 0.34 0 0 Z " fill="#7C845E" transform="translate(131,76)"/>
<path d="M0 0 C0.99 0.33 1.98 0.66 3 1 C3 3.31 3 5.62 3 8 C0.5 6.75 0.5 6.75 -2 5 C-2 3.68 -2 2.36 -2 1 C-1.34 0.67 -0.68 0.34 0 0 Z " fill="#717A51" transform="translate(96,105)"/>
<path d="M0 0 C0.66 0.99 1.32 1.98 2 3 C0.85546875 4.51953125 0.85546875 4.51953125 -1 6 C-3.69921875 6.07421875 -3.69921875 6.07421875 -6.6875 5.6875 C-8.17830078 5.50767578 -8.17830078 5.50767578 -9.69921875 5.32421875 C-10.45847656 5.21722656 -11.21773437 5.11023438 -12 5 C-12 4.67 -12 4.34 -12 4 C-11.38511719 3.96261719 -10.77023438 3.92523438 -10.13671875 3.88671875 C-9.32847656 3.82097656 -8.52023438 3.75523438 -7.6875 3.6875 C-6.88699219 3.62949219 -6.08648437 3.57148437 -5.26171875 3.51171875 C-2.63727666 2.91793306 -1.69179328 2.04219706 0 0 Z " fill="#6D764D" transform="translate(74,88)"/>
<path d="M0 0 C0 0.99 0 1.98 0 3 C1.32 3 2.64 3 4 3 C3.67 3.99 3.34 4.98 3 6 C0.36 5.67 -2.28 5.34 -5 5 C-5 3 -5 3 -3.625 1.375 C-2 0 -2 0 0 0 Z " fill="#5E6839" transform="translate(115,89)"/>
<path d="M0 0 C1.9451 2.91765 2.45276317 4.62537285 3 8 C1.68 8 0.36 8 -1 8 C-1.33 8.66 -1.66 9.32 -2 10 C-2.33 8.35 -2.66 6.7 -3 5 C-2.34 5 -1.68 5 -1 5 C-0.67 3.35 -0.34 1.7 0 0 Z " fill="#687245" transform="translate(22,76)"/>
<path d="M0 0 C2.64 0 5.28 0 8 0 C7.01 0.33 6.02 0.66 5 1 C5.495 1.78375 5.99 2.5675 6.5 3.375 C8 6 8 6 8 8 C7.34 8 6.68 8 6 8 C5.7525 7.38125 5.505 6.7625 5.25 6.125 C3.79371361 3.64931313 2.62187494 3.04874998 0 2 C0 1.34 0 0.68 0 0 Z " fill="#737C52" transform="translate(7,63)"/>
<path d="M0 0 C0.99 0.33 1.98 0.66 3 1 C2.67 3.31 2.34 5.62 2 8 C1.67 7.34 1.34 6.68 1 6 C0.01 5.67 -0.98 5.34 -2 5 C-1.34 3.35 -0.68 1.7 0 0 Z " fill="#586331" transform="translate(92,81)"/>
<path d="M0 0 C1.32 0.66 2.64 1.32 4 2 C4 2.99 4 3.98 4 5 C2.68 5 1.36 5 0 5 C-0.66 5.66 -1.32 6.32 -2 7 C-1.125 1.125 -1.125 1.125 0 0 Z " fill="#5A6434" transform="translate(97,73)"/>
<path d="M0 0 C0.99 0 1.98 0 3 0 C3 2.64 3 5.28 3 8 C2.01 8 1.02 8 0 8 C0 5.36 0 2.72 0 0 Z " fill="#AAAF96" transform="translate(40,46)"/>
<path d="M0 0 C0.99 0 1.98 0 3 0 C3 2.64 3 5.28 3 8 C2.01 8 1.02 8 0 8 C0 5.36 0 2.72 0 0 Z " fill="#656E41" transform="translate(106,46)"/>
<path d="M0 0 C1.32 0.66 2.64 1.32 4 2 C4 2.99 4 3.98 4 5 C2.02 5 0.04 5 -2 5 C-2.33 4.01 -2.66 3.02 -3 2 C-2.01 1.34 -1.02 0.68 0 0 Z " fill="#727B51" transform="translate(84,105)"/>
<path d="M0 0 C0.99 0.33 1.98 0.66 3 1 C1.93940067 4.181798 0.52448631 7.0173094 -1 10 C-1.66 9.67 -2.32 9.34 -3 9 C-2.01 6.03 -1.02 3.06 0 0 Z " fill="#7C845D" transform="translate(122,68)"/>
<path d="M0 0 C1.32 0.33 2.64 0.66 4 1 C3.39816251 3.02045442 2.72693904 5.02111039 2 7 C1.01 7.495 1.01 7.495 0 8 C0 5.36 0 2.72 0 0 Z " fill="#737C53" transform="translate(86,64)"/>
<path d="M0 0 C0.66 0 1.32 0 2 0 C1.67 5.94 1.34 11.88 1 18 C0.67 18 0.34 18 0 18 C-0.19384179 15.18780295 -0.38036603 12.37545804 -0.5625 9.5625 C-0.61857422 8.76005859 -0.67464844 7.95761719 -0.73242188 7.13085938 C-0.8616295 5.08937889 -0.9351273 3.04453631 -1 1 C-0.67 0.67 -0.34 0.34 0 0 Z " fill="#757E56" transform="translate(96,8)"/>
<path d="M0 0 C4.455 0.99 4.455 0.99 9 2 C8.67 2.99 8.34 3.98 8 5 C8 4.34 8 3.68 8 3 C7.34 3 6.68 3 6 3 C5.67 3.66 5.34 4.32 5 5 C5 4.34 5 3.68 5 3 C3.35 2.67 1.7 2.34 0 2 C0 1.34 0 0.68 0 0 Z " fill="#5A6433" transform="translate(49,63)"/>
<path d="M0 0 C1.98 0.66 3.96 1.32 6 2 C6.33 1.34 6.66 0.68 7 0 C6.67 1.32 6.34 2.64 6 4 C3.69 3.67 1.38 3.34 -1 3 C-0.67 2.01 -0.34 1.02 0 0 Z " fill="#909776" transform="translate(93,111)"/>
<path d="M0 0 C0.66 0 1.32 0 2 0 C2.99 2.31 3.98 4.62 5 7 C3.68 6.67 2.36 6.34 1 6 C0.67 4.02 0.34 2.04 0 0 Z " fill="#5F693A" transform="translate(80,108)"/>
<path d="M0 0 C4 4.625 4 4.625 4 8 C3.01 7.67 2.02 7.34 1 7 C0.67 4.69 0.34 2.38 0 0 Z " fill="#677144" transform="translate(22,86)"/>
</svg>
